<svg id="Icons" xmlns="http://www.w3.org/2000/svg" viewBox="0 0 24 24"><defs><style>.cls-1{fill:#bbdefb;}.cls-2{fill:#8ac8fb;}.cls-3{fill:#486675;}</style></defs><title>Cloudy 2</title><path class="cls-1" d="M21.21,9.67A5.49,5.49,0,0,0,16.5,7H14.74a6.61,6.61,0,0,0-.83-1A7,7,0,1,0,9,18h7.5A5.51,5.51,0,0,0,22,12.5,5.36,5.36,0,0,0,21.21,9.67Z"/><path class="cls-2" d="M11.25,12.5h-.88A4.67,4.67,0,1,0,6.67,20h4.58a3.75,3.75,0,0,0,0-7.5Z"/><path class="cls-3" d="M16.5,7H14.74A7,7,0,0,0,2.43,13.4,4.62,4.62,0,0,0,2,15.33,4.67,4.67,0,0,0,6.67,20h4.58a3.76,3.76,0,0,0,3.3-2H16.5a5.5,5.5,0,0,0,0-11ZM11.25,18H6.67A2.67,2.67,0,1,1,9,14a1,1,0,0,0,.87.5h1.41a1.75,1.75,0,0,1,0,3.5Zm5.25-2H15a3.74,3.74,0,0,0-3.72-3.5h-.88a4.67,4.67,0,0,0-6.32-1A3.56,3.56,0,0,1,4,11a5,5,0,0,1,9.32-2.5,1,1,0,0,0,.87.5H16.5a3.5,3.5,0,0,1,0,7Z"/></svg>