<svg id="Icons" xmlns="http://www.w3.org/2000/svg" viewBox="0 0 24 24"><defs><style>.cls-1{fill:#7ba0b2;}.cls-2{fill:#bbdefb;}.cls-3{fill:#486675;}</style></defs><title>Cloudy-Moon</title><path class="cls-1" d="M20.7,6.92A3.76,3.76,0,0,1,20,7a3,3,0,0,1-3-3,3.76,3.76,0,0,1,.08-.7,1,1,0,0,0-1.2-1.17,5,5,0,0,0-2.18,8.62,1,1,0,0,0,.66.25H16.5a3.44,3.44,0,0,1,1.74.47,1,1,0,0,0,.5.13.91.91,0,0,0,.43-.1,5,5,0,0,0,2.7-3.37,1,1,0,0,0-.25-.93A1,1,0,0,0,20.7,6.92Z"/><path class="cls-2" d="M21.21,11.67A5.49,5.49,0,0,0,16.5,9H14.74a6.61,6.61,0,0,0-.83-1A7,7,0,1,0,9,20h7.5A5.51,5.51,0,0,0,22,14.5,5.36,5.36,0,0,0,21.21,11.67Z"/><path class="cls-3" d="M20.42,10.64a5,5,0,0,0,1.45-2.51,1,1,0,0,0-.25-.93,1,1,0,0,0-.92-.28A3.76,3.76,0,0,1,20,7a3,3,0,0,1-3-3,3.76,3.76,0,0,1,.08-.7,1,1,0,0,0-1.2-1.17A5,5,0,0,0,12,6.7,7,7,0,1,0,9,20h7.5a5.5,5.5,0,0,0,3.92-9.36ZM15.05,4.71A5,5,0,0,0,19.28,9a3.15,3.15,0,0,1-.57.52l-.07,0-.18-.07c-.14,0-.29-.11-.44-.15l-.22-.06-.45-.09-.2,0c-.21,0-.43,0-.65,0H14.77a3,3,0,0,1,.28-4.29ZM16.5,18H9a5,5,0,1,1,4.32-7.5,1,1,0,0,0,.87.5H16.5A2.63,2.63,0,0,1,17,11a3.47,3.47,0,0,1,.84.22l.22.11.2.1A3.5,3.5,0,0,1,16.5,18Z"/></svg>