<svg id="Icons" xmlns="http://www.w3.org/2000/svg" viewBox="0 0 24 24"><defs><style>.cls-1{fill:#309ffb;}.cls-2{fill:#bbdefb;}.cls-3{fill:#486675;}.cls-4{fill:#8ac8fb;}</style></defs><title>Cold Temperature</title><path class="cls-1" d="M20.1,8.63,19,8l1.1-.63a1,1,0,0,0-1-1.74L18,6.27V5a1,1,0,0,0-2,0V6.27l-1.1-.64a1,1,0,0,0-1,1.74L15,8l-1.1.63a1,1,0,0,0,.5,1.87,1,1,0,0,0,.5-.13L16,9.73V11a1,1,0,0,0,2,0V9.73l1.1.64A1,1,0,0,0,20.46,10,1,1,0,0,0,20.1,8.63Z"/><path class="cls-2" d="M11,13V5A3,3,0,0,0,5,5v8a5,5,0,1,0,6,0Z"/><path class="cls-3" d="M8,22a5,5,0,0,1-3-9V5a3,3,0,0,1,6,0v8a5,5,0,0,1-3,9ZM8,4A1,1,0,0,0,7,5v8.54a1,1,0,0,1-.5.87A3,3,0,0,0,5,17a3,3,0,0,0,6,0,3,3,0,0,0-1.5-2.59,1,1,0,0,1-.5-.87V5A1,1,0,0,0,8,4Z"/><circle class="cls-4" cx="8" cy="17" r="2"/></svg>