<svg id="Icons" xmlns="http://www.w3.org/2000/svg" viewBox="0 0 24 24"><defs><style>.cls-1{fill:#7ba0b2;}.cls-2{fill:#486675;}</style></defs><title>Crescent</title><path class="cls-1" d="M20.69,15.42a1,1,0,0,0-1.17-.17,6.43,6.43,0,0,1-3,.75A6.5,6.5,0,0,1,13.22,3.89a1,1,0,0,0,.48-1.08A1,1,0,0,0,12.8,2c-.26,0-.53,0-.8,0a10,10,0,1,0,8.88,14.59A1,1,0,0,0,20.69,15.42Z"/><path class="cls-2" d="M12,22A10,10,0,0,1,12,2c.27,0,.54,0,.8,0a1,1,0,0,1,.9.78,1,1,0,0,1-.48,1.08A6.5,6.5,0,0,0,16.5,16a6.43,6.43,0,0,0,3-.75,1,1,0,0,1,1.17.17,1,1,0,0,1,.19,1.17A9.94,9.94,0,0,1,12,22ZM9.77,4.31A8,8,0,1,0,17.34,18a7.87,7.87,0,0,1-.84,0A8.5,8.5,0,0,1,9.77,4.31Z"/></svg>