<svg id="Icons" xmlns="http://www.w3.org/2000/svg" viewBox="0 0 24 24"><defs><style>.cls-1{fill:#309ffb;}.cls-2{fill:#486675;}</style></defs><title>Cyclone</title><path class="cls-1" d="M21.45,3.11A11.22,11.22,0,0,0,17,2a22.81,22.81,0,0,0-6.32,1,1,1,0,0,0-.63,1.26c0,.06,1.67,5.21-1.5,6.8a5.77,5.77,0,0,0-3.39,4c-.68,3.22,2,6.43,2.07,6.57A1,1,0,0,0,8,22a1,1,0,0,0,.45-.1A1,1,0,0,0,9,20.77s-.65-3.11,5.3-4.81C21.91,13.78,22,4.4,22,4A1,1,0,0,0,21.45,3.11Z"/><path class="cls-2" d="M8,22a1,1,0,0,1-.77-.36c-.11-.14-2.75-3.35-2.07-6.57a5.77,5.77,0,0,1,3.39-4c3.17-1.59,1.52-6.74,1.5-6.8a1,1,0,0,1,.63-1.26A22.81,22.81,0,0,1,17,2a11.22,11.22,0,0,1,4.45,1.11A1,1,0,0,1,22,4c0,.4-.09,9.78-7.73,12C8.32,17.66,9,20.74,9,20.77a1,1,0,0,1-.52,1.13A1,1,0,0,1,8,22ZM12.22,4.69c.43,2,.9,6.37-2.77,8.2a3.85,3.85,0,0,0-2.33,2.59,4.76,4.76,0,0,0,.4,2.76c.75-1.46,2.45-3.13,6.21-4.2,5.15-1.47,6.07-7.42,6.23-9.4A8.69,8.69,0,0,0,17,4,19.83,19.83,0,0,0,12.22,4.69Z"/></svg>