<svg id="Icons" xmlns="http://www.w3.org/2000/svg" viewBox="0 0 24 24"><defs><style>.cls-1{fill:#50aefb;}.cls-2{fill:#486675;}</style></defs><title>Flood Down</title><path class="cls-1" d="M21,10a1,1,0,0,0-1,1,1.87,1.87,0,0,1-.6,1.48A2.12,2.12,0,0,1,18,13a1.87,1.87,0,0,1-2-2,1,1,0,0,0-2,0,1.91,1.91,0,0,1-2,2,1.87,1.87,0,0,1-2-2,1,1,0,0,0-2,0,1.87,1.87,0,0,1-.6,1.48A2.12,2.12,0,0,1,6,13a1.87,1.87,0,0,1-2-2,1,1,0,0,0-2,0V21a1,1,0,0,0,1,1H21a1,1,0,0,0,1-1V11A1,1,0,0,0,21,10Z"/><path class="cls-2" d="M15.71,5.29a1,1,0,0,0-1.42,0L13,6.59V4a1,1,0,0,0-2,0V6.59L9.71,5.29A1,1,0,0,0,8.29,6.71l3,3a1,1,0,0,0,1.42,0l3-3A1,1,0,0,0,15.71,5.29Z"/><path class="cls-2" d="M21,22H3a1,1,0,0,1-1-1V11a1,1,0,0,1,2,0,1.87,1.87,0,0,0,2,2,2.12,2.12,0,0,0,1.4-.5A1.87,1.87,0,0,0,8,11a1,1,0,0,1,2,0,1.87,1.87,0,0,0,2,2,1.91,1.91,0,0,0,2-2,1,1,0,0,1,2,0,1.87,1.87,0,0,0,2,2,2.12,2.12,0,0,0,1.4-.5A1.87,1.87,0,0,0,20,11a1,1,0,0,1,2,0V21A1,1,0,0,1,21,22ZM4,20H20V14.49A4.29,4.29,0,0,1,15.28,14a3.2,3.2,0,0,1-.28-.26A4.27,4.27,0,0,1,9.27,14L9,13.72a4.3,4.3,0,0,1-5,.77Z"/></svg>