<svg id="Icons" xmlns="http://www.w3.org/2000/svg" viewBox="0 0 24 24"><defs><style>.cls-1{fill:#bbdefb;}.cls-2{fill:#486675;}.cls-3{fill:#8ac8fb;}</style></defs><title>Hot Temperature</title><path class="cls-1" d="M14,13a1,1,0,0,1-.71-.29,1,1,0,0,1,0-1.42A3.44,3.44,0,0,0,14,9a5.32,5.32,0,0,1,1.29-3.71A1,1,0,0,1,16.72,6.7,3.42,3.42,0,0,0,16,9a5.32,5.32,0,0,1-1.29,3.71A1,1,0,0,1,14,13Z"/><path class="cls-1" d="M18,13a1,1,0,0,1-.71-.29,1,1,0,0,1,0-1.42A3.44,3.44,0,0,0,18,9a5.32,5.32,0,0,1,1.29-3.71A1,1,0,0,1,20.72,6.7,3.42,3.42,0,0,0,20,9a5.32,5.32,0,0,1-1.29,3.71A1,1,0,0,1,18,13Z"/><path class="cls-1" d="M11,13V5A3,3,0,0,0,5,5v8a5,5,0,1,0,6,0Z"/><path class="cls-2" d="M8,22a5,5,0,0,1-3-9V5a3,3,0,0,1,6,0v8a5,5,0,0,1-3,9ZM8,4A1,1,0,0,0,7,5v8.54a1,1,0,0,1-.5.87A3,3,0,0,0,5,17a3,3,0,0,0,6,0,3,3,0,0,0-1.5-2.59,1,1,0,0,1-.5-.87V5A1,1,0,0,0,8,4Z"/><circle class="cls-3" cx="8" cy="17" r="2"/></svg>