<svg id="Icons" xmlns="http://www.w3.org/2000/svg" viewBox="0 0 24 24"><defs><style>.cls-1{fill:#f8d800;}.cls-2{fill:#fe9517;}.cls-3{fill:#fe6017;}.cls-4{fill:#486675;}</style></defs><title>Meteor</title><path class="cls-1" d="M21.87,3.49,13.31,18.8a6,6,0,0,0-7.58-8.35L20.51,2.13a1,1,0,0,1,1.2.16A1,1,0,0,1,21.87,3.49Z"/><path class="cls-2" d="M14,16a6,6,0,0,1-.69,2.8.25.25,0,0,0,0,.07,6,6,0,1,1-8.95-7.6.77.77,0,0,1,.19-.14,5.42,5.42,0,0,1,1.22-.68A5.93,5.93,0,0,1,8,10,6,6,0,0,1,14,16Z"/><circle class="cls-3" cx="8" cy="16" r="2"/><path class="cls-4" d="M21.71,2.29a1,1,0,0,0-1.2-.16L5.7,10.46a5.78,5.78,0,0,0-1.19.67h0a6,6,0,1,0,8.75,7.76s0,0,0,0l8.6-15.38A1,1,0,0,0,21.71,2.29ZM8,20a4,4,0,0,1-2.36-7.21l.88-.5A4.06,4.06,0,0,1,8,12a4,4,0,0,1,0,8Zm5.67-5.94A6,6,0,0,0,10,10.34l8.41-4.73Z"/></svg>