<svg id="Icons" xmlns="http://www.w3.org/2000/svg" viewBox="0 0 24 24"><defs><style>.cls-1{fill:#7ba0b2;}.cls-2{fill:#486675;}</style></defs><title>Moon 3</title><path class="cls-1" d="M20,14.94c-.32,0-.66.06-1,.06A7,7,0,0,1,13.51,3.65a1,1,0,0,0,.14-1,1,1,0,0,0-.83-.6c-.27,0-.54,0-.82,0a10,10,0,1,0,9,14.37,1,1,0,0,0-1-1.43Z"/><path class="cls-2" d="M12,22A10,10,0,0,1,12,2c.28,0,.55,0,.82,0a1,1,0,0,1,.83.6,1,1,0,0,1-.14,1A7,7,0,0,0,19,15c.33,0,.67,0,1-.06a1,1,0,0,1,1,1.43A10.08,10.08,0,0,1,12,22ZM10.9,4.08A8,8,0,0,0,12,20a8.09,8.09,0,0,0,6.27-3A9,9,0,0,1,10.9,4.08Z"/></svg>