<svg id="Icons" xmlns="http://www.w3.org/2000/svg" viewBox="0 0 24 24"><defs><style>.cls-1{fill:#17fe83;}.cls-2{fill:#f8d800;}.cls-3{fill:#fe6017;}.cls-4{fill:#486675;}</style></defs><title>Rainbow</title><path class="cls-1" d="M21.68,10.31a1,1,0,0,0-.77-.26A12,12,0,0,0,10.05,20.91a1,1,0,0,0,1,1.09h4a1,1,0,0,0,1-.86,6,6,0,0,1,5.07-5.07,1,1,0,0,0,.86-1v-4A1,1,0,0,0,21.68,10.31Z"/><path class="cls-2" d="M21.68,6.31A1,1,0,0,0,20.93,6,16,16,0,0,0,6,20.93a1,1,0,0,0,.27.75A1,1,0,0,0,7,22h4a1,1,0,0,0,1-.91,9.94,9.94,0,0,1,9-9,1,1,0,0,0,.91-1V7A1,1,0,0,0,21.68,6.31Z"/><path class="cls-3" d="M21.69,2.29A1,1,0,0,0,21,2,20,20,0,0,0,2,21a1.06,1.06,0,0,0,.27.74A1,1,0,0,0,3,22H7a1,1,0,0,0,1-.93,14,14,0,0,1,13-13A1,1,0,0,0,22,7V3A1,1,0,0,0,21.69,2.29Z"/><path class="cls-4" d="M21.69,2.29A1,1,0,0,0,21,2,20,20,0,0,0,2,21a1.06,1.06,0,0,0,.27.74A1,1,0,0,0,3,22H15.08a1,1,0,0,0,1-.86,6,6,0,0,1,5.07-5.07,1,1,0,0,0,.86-1V3A1,1,0,0,0,21.69,2.29Zm-2.14,8-.62.14-.39.12L18,10.7l-.39.15-.53.22-.38.18q-.26.12-.51.27l-.35.2-.5.32-.32.21-.51.4-.26.2c-.23.2-.46.41-.68.63l-.06.06-.63.68c-.07.09-.13.18-.2.26s-.27.34-.39.51l-.22.32c-.11.17-.22.33-.32.5a3.07,3.07,0,0,0-.2.36,4.82,4.82,0,0,0-.27.5l-.18.38c-.08.18-.15.35-.22.53L10.7,18q-.1.29-.18.57l-.12.39c-.05.2-.09.41-.14.62s0,.24-.07.37a.24.24,0,0,0,0,.08h-2s0-.08,0-.12.06-.3.09-.45.09-.5.15-.75.09-.31.13-.47.13-.46.21-.69.11-.31.17-.47.17-.43.26-.65L9.39,16c.1-.21.21-.42.32-.62L10,14.9l.39-.61c.08-.13.17-.26.26-.38s.31-.42.47-.63.16-.21.25-.3c.25-.3.51-.59.78-.86l0,0c.27-.27.56-.53.85-.78.1-.09.21-.16.31-.24s.41-.33.63-.48l.38-.26L14.9,10l.42-.23q.31-.18.63-.33l.45-.2a6.5,6.5,0,0,1,.66-.27l.46-.17c.23-.08.46-.15.7-.21l.46-.13.77-.16.42-.08H20v2l-.08,0ZM20,4.1v2l-.29,0-.61.1-.78.16-.6.16c-.25.07-.5.14-.74.23L16.4,7l-.72.29-.55.25c-.24.11-.47.23-.7.36l-.51.28c-.24.14-.46.29-.69.44s-.31.19-.46.3-.47.36-.71.54-.25.19-.36.29c-.34.28-.66.58-1,.88l-.07.07c-.3.31-.6.63-.88,1-.1.11-.19.24-.29.36s-.37.47-.54.71-.2.31-.3.46-.3.45-.44.69-.19.34-.28.51-.25.46-.36.7-.17.36-.25.55-.2.48-.29.72-.14.38-.2.58-.16.49-.23.74-.11.4-.16.6-.11.52-.16.78-.07.41-.1.61,0,.19,0,.29h-2A18,18,0,0,1,20,4.1ZM14.26,20h-2l0-.13a10.15,10.15,0,0,1,.34-1.23l0-.09a11.61,11.61,0,0,1,.53-1.19l.12-.22a10.38,10.38,0,0,1,.67-1.05l.14-.18a10,10,0,0,1,1.84-1.84l.18-.14a9.51,9.51,0,0,1,1.06-.67l.21-.11a9.84,9.84,0,0,1,1.19-.54l.08,0a9.16,9.16,0,0,1,1.24-.35l.13,0v2A8,8,0,0,0,14.26,20Z"/></svg>