<svg id="Icons" xmlns="http://www.w3.org/2000/svg" viewBox="0 0 24 24"><defs><style>.cls-1{fill:#486675;}.cls-2{fill:#73a2ba;}</style></defs><title>Snow</title><path class="cls-1" d="M11.3,7.63a1,1,0,0,0,.21.14s.07.06.11.07a.94.94,0,0,0,.76,0s.07,0,.11-.07a1,1,0,0,0,.21-.14l3-2.91a1,1,0,1,0-1.4-1.44L12,5.52,9.7,3.28A1,1,0,0,0,8.3,4.72Z"/><path class="cls-1" d="M12.7,16.37a.65.65,0,0,0-.15-.1.82.82,0,0,0-.17-.11.78.78,0,0,0-.21,0,.86.86,0,0,0-.17,0,.93.93,0,0,0-.22,0l-.15,0a.76.76,0,0,0-.19.12,1.1,1.1,0,0,0-.14.09l-3,2.91a1,1,0,0,0,1.4,1.44L12,18.48l2.3,2.24a1,1,0,0,0,1.4-1.44Z"/><path class="cls-2" d="M12,10a1,1,0,0,1-1-1V3a1,1,0,0,1,2,0V9A1,1,0,0,1,12,10Z"/><path class="cls-2" d="M12,22a1,1,0,0,1-1-1V15a1,1,0,0,1,2,0v6A1,1,0,0,1,12,22Z"/><path class="cls-1" d="M7.88,11.81a.53.53,0,0,0,0-.18.5.5,0,0,0-.11-.17.54.54,0,0,0-.1-.16l-2.91-3A1,1,0,1,0,3.28,9.7L5.52,12,3.28,14.3a1,1,0,0,0,1.44,1.4l2.91-3a.54.54,0,0,0,.1-.16.5.5,0,0,0,.11-.17.53.53,0,0,0,0-.18,1.25,1.25,0,0,0,0-.19A1.25,1.25,0,0,0,7.88,11.81Z"/><path class="cls-1" d="M18.48,12l2.24-2.3a1,1,0,0,0-1.44-1.4l-2.91,3a.54.54,0,0,0-.1.16.5.5,0,0,0-.11.17.53.53,0,0,0,0,.18,1.25,1.25,0,0,0,0,.19,1.25,1.25,0,0,0,0,.19.53.53,0,0,0,0,.18.5.5,0,0,0,.11.17.54.54,0,0,0,.1.16l2.91,3a1,1,0,0,0,1.44-1.4Z"/><path class="cls-2" d="M9,13H3a1,1,0,0,1,0-2H9a1,1,0,0,1,0,2Z"/><path class="cls-2" d="M21,13H15a1,1,0,0,1,0-2h6a1,1,0,0,1,0,2Z"/><path class="cls-1" d="M12,16a1,1,0,0,1-.71-.29l-3-3a1,1,0,0,1,0-1.42l3-3a1,1,0,0,1,1.42,0l3,3a1,1,0,0,1,0,1.42l-3,3A1,1,0,0,1,12,16Zm-1.59-4L12,13.59,13.59,12,12,10.41Z"/></svg>