<svg id="Icons" xmlns="http://www.w3.org/2000/svg" viewBox="0 0 24 24"><defs><style>.cls-1{fill:#fe9517;}.cls-2{fill:#486675;}</style></defs><title>Star</title><path class="cls-1" d="M21.57,10A1.66,1.66,0,0,0,20,8.8H15.1L13.59,4.16a1.67,1.67,0,0,0-3.18,0L8.9,8.8H4a1.67,1.67,0,0,0-1,3L7,14.69l-1.5,4.65a1.67,1.67,0,0,0,2.57,1.87L12,18.34,16,21.21a1.69,1.69,0,0,0,1,.32,1.72,1.72,0,0,0,1-.32,1.67,1.67,0,0,0,.6-1.87L17,14.69,21,11.83A1.68,1.68,0,0,0,21.57,10Z"/><path class="cls-2" d="M16.93,21.53a1.69,1.69,0,0,1-1-.32L12,18.34,8.05,21.21a1.67,1.67,0,0,1-2.57-1.87L7,14.69,3,11.83a1.67,1.67,0,0,1,1-3H8.9l1.51-4.64a1.67,1.67,0,0,1,3.18,0L15.1,8.8H20A1.66,1.66,0,0,1,21.57,10a1.68,1.68,0,0,1-.6,1.88L17,14.69l1.5,4.65a1.67,1.67,0,0,1-.6,1.87A1.72,1.72,0,0,1,16.93,21.53ZM12,16.26a1.69,1.69,0,0,1,1,.32L16.31,19,15,15.09a1.68,1.68,0,0,1,.61-1.88L19,10.8H14.86a1.69,1.69,0,0,1-1.59-1.15L12,5.73,10.73,9.64A1.68,1.68,0,0,1,9.14,10.8H5l3.33,2.42A1.66,1.66,0,0,1,9,15.09L7.69,19,11,16.58A1.69,1.69,0,0,1,12,16.26Zm8-5.46h0Zm-8.29-6Z"/></svg>