<svg id="Icons" xmlns="http://www.w3.org/2000/svg" viewBox="0 0 24 24"><defs><style>.cls-1{fill:#f8d800;}.cls-2{fill:#bbdefb;}.cls-3{fill:#8ac8fb;}.cls-4{fill:#53affb;}.cls-5{fill:#486675;}</style></defs><title>Sun Rain 2</title><path class="cls-1" d="M17,2a5,5,0,0,0-4.74,3.41,1,1,0,0,0,.25,1,4.45,4.45,0,0,1,.81,1,1,1,0,0,0,.87.5H16.5a3.44,3.44,0,0,1,3,1.69,1,1,0,0,0,.84.49h0a1,1,0,0,0,.84-.45A5,5,0,0,0,17,2Z"/><path class="cls-2" d="M21.21,8.67A5.49,5.49,0,0,0,16.5,6H14.74a6.61,6.61,0,0,0-.83-1A7,7,0,1,0,9,17h7.5A5.51,5.51,0,0,0,22,11.5,5.36,5.36,0,0,0,21.21,8.67Z"/><path class="cls-3" d="M9,17a1,1,0,0,1-1-1V14a1,1,0,0,1,2,0v2A1,1,0,0,1,9,17Z"/><path class="cls-3" d="M15,16a1,1,0,0,1-1-1V13a1,1,0,0,1,2,0v2A1,1,0,0,1,15,16Z"/><path class="cls-3" d="M12,19a1,1,0,0,1-1-1V15a1,1,0,0,1,2,0v3A1,1,0,0,1,12,19Z"/><circle class="cls-4" cx="12" cy="21" r="1"/><circle class="cls-4" cx="9" cy="19" r="1"/><circle class="cls-4" cx="15" cy="18" r="1"/><path class="cls-5" d="M22,7a5,5,0,0,0-9.11-2.82A6.93,6.93,0,0,0,9,3,7,7,0,0,0,5.5,16.06a.93.93,0,0,0,.5.14,1,1,0,0,0,.5-1.86A5,5,0,0,1,9,5a5,5,0,0,1,3.51,1.44h0a4.45,4.45,0,0,1,.81,1,1,1,0,0,0,.87.5H16.5a3.44,3.44,0,0,1,3,1.69h0A3.33,3.33,0,0,1,20,11.5a3.53,3.53,0,0,1-1.93,3.13l-.31.14a1,1,0,0,0,.33,1.94,1,1,0,0,0,.33-.06,5.15,5.15,0,0,0,.54-.23,5.45,5.45,0,0,0,3-4.92,5.35,5.35,0,0,0-.52-2.31A4.9,4.9,0,0,0,22,7ZM16.5,6H14.74c-.11-.16-.23-.32-.35-.47A3,3,0,0,1,20,7a2.09,2.09,0,0,1,0,.25A5.54,5.54,0,0,0,16.5,6Z"/></svg>