<svg id="Icons" xmlns="http://www.w3.org/2000/svg" viewBox="0 0 24 24"><defs><style>.cls-1{fill:#f8d800;}.cls-2{fill:#486675;}</style></defs><title>Sun</title><circle class="cls-1" cx="12" cy="12" r="5"/><path class="cls-2" d="M12,6a1,1,0,0,1-1-1V3a1,1,0,0,1,2,0V5A1,1,0,0,1,12,6Z"/><path class="cls-2" d="M12,22a1,1,0,0,1-1-1V19a1,1,0,0,1,2,0v2A1,1,0,0,1,12,22Z"/><path class="cls-2" d="M7.05,8.05a1,1,0,0,1-.71-.29L4.93,6.34A1,1,0,0,1,6.34,4.93L7.76,6.34a1,1,0,0,1,0,1.42A1,1,0,0,1,7.05,8.05Z"/><path class="cls-2" d="M18.36,19.36a1,1,0,0,1-.7-.29l-1.42-1.41a1,1,0,0,1,1.42-1.42l1.41,1.42a1,1,0,0,1,0,1.41A1,1,0,0,1,18.36,19.36Z"/><path class="cls-2" d="M5,13H3a1,1,0,0,1,0-2H5a1,1,0,0,1,0,2Z"/><path class="cls-2" d="M21,13H19a1,1,0,0,1,0-2h2a1,1,0,0,1,0,2Z"/><path class="cls-2" d="M5.64,19.36a1,1,0,0,1-.71-.29,1,1,0,0,1,0-1.41l1.41-1.42a1,1,0,0,1,1.42,1.42L6.34,19.07A1,1,0,0,1,5.64,19.36Z"/><path class="cls-2" d="M17,8.05a1,1,0,0,1-.71-.29,1,1,0,0,1,0-1.42l1.42-1.41a1,1,0,1,1,1.41,1.41L17.66,7.76A1,1,0,0,1,17,8.05Z"/><path class="cls-2" d="M12,17a5,5,0,1,1,5-5A5,5,0,0,1,12,17Zm0-8a3,3,0,1,0,3,3A3,3,0,0,0,12,9Z"/></svg>