<svg id="Icons" xmlns="http://www.w3.org/2000/svg" viewBox="0 0 24 24"><defs><style>.cls-1{fill:#f8d800;}.cls-2{fill:#486675;}</style></defs><title>Sunset</title><path class="cls-1" d="M16.84,11.74a5,5,0,0,0-9.68,0,1,1,0,0,0,1,1.25h7.74a1,1,0,0,0,1-1.25Z"/><path class="cls-2" d="M12,7a1,1,0,0,1-1-1V4a1,1,0,0,1,2,0V6A1,1,0,0,1,12,7Z"/><path class="cls-2" d="M7.05,9.05a1,1,0,0,1-.71-.29L4.93,7.34A1,1,0,0,1,6.34,5.93L7.76,7.34a1,1,0,0,1,0,1.42A1,1,0,0,1,7.05,9.05Z"/><path class="cls-2" d="M17,9.05a1,1,0,0,1-.71-.29,1,1,0,0,1,0-1.42l1.42-1.41a1,1,0,1,1,1.41,1.41L17.66,8.76A1,1,0,0,1,17,9.05Z"/><path class="cls-2" d="M21,17H3a1,1,0,0,1,0-2H21a1,1,0,0,1,0,2Z"/><path class="cls-2" d="M17,21H7a1,1,0,0,1,0-2H17a1,1,0,0,1,0,2Z"/><path class="cls-2" d="M8.13,13a1,1,0,0,1-1-1.25,5,5,0,0,1,9.68,0,1,1,0,0,1-1,1.25ZM12,10a3,3,0,0,0-2.24,1h4.47A3,3,0,0,0,12,10Z"/></svg>