<svg id="Icons" xmlns="http://www.w3.org/2000/svg" viewBox="0 0 24 24"><defs><style>.cls-1{fill:#f8d800;}.cls-2{fill:#486675;}</style></defs><title>Sunset2</title><path class="cls-1" d="M12,7a5,5,0,0,0-5,5,1,1,0,0,0,1,1h8a1,1,0,0,0,1-1A5,5,0,0,0,12,7Z"/><path class="cls-2" d="M12,6a1,1,0,0,1-1-1V3a1,1,0,0,1,2,0V5A1,1,0,0,1,12,6Z"/><path class="cls-2" d="M7.05,8.05a1,1,0,0,1-.71-.29L4.93,6.34A1,1,0,0,1,6.34,4.93L7.76,6.34a1,1,0,0,1,0,1.42A1,1,0,0,1,7.05,8.05Z"/><path class="cls-2" d="M5,13H3a1,1,0,0,1,0-2H5a1,1,0,0,1,0,2Z"/><path class="cls-2" d="M21,13H19a1,1,0,0,1,0-2h2a1,1,0,0,1,0,2Z"/><path class="cls-2" d="M17,8.05a1,1,0,0,1-.71-.29,1,1,0,0,1,0-1.42l1.42-1.41a1,1,0,1,1,1.41,1.41L17.66,7.76A1,1,0,0,1,17,8.05Z"/><path class="cls-2" d="M12,21a1,1,0,0,1-.71-.29L8.59,18H3a1,1,0,0,1,0-2H9a1,1,0,0,1,.71.29L12,18.59l2.29-2.3A1,1,0,0,1,15,16h6a1,1,0,0,1,0,2H15.41l-2.7,2.71A1,1,0,0,1,12,21Z"/><path class="cls-2" d="M16,13H8a1,1,0,0,1-1-1,5,5,0,0,1,10,0A1,1,0,0,1,16,13ZM9.17,11h5.66a3,3,0,0,0-5.66,0Z"/></svg>