<svg id="Icons" xmlns="http://www.w3.org/2000/svg" viewBox="0 0 24 24"><defs><style>.cls-1{fill:#bbdefb;}.cls-2{fill:#486675;}.cls-3{fill:#fe6017;}</style></defs><title>Temperature</title><path class="cls-1" d="M15,13V5A3,3,0,0,0,9,5v8a5,5,0,1,0,6,0Z"/><path class="cls-2" d="M12,22a5,5,0,0,1-3-9V5a3,3,0,0,1,6,0v8a5,5,0,0,1-3,9ZM12,4a1,1,0,0,0-1,1v8.54a1,1,0,0,1-.5.87A3,3,0,0,0,9,17a3,3,0,0,0,6,0,3,3,0,0,0-1.5-2.59,1,1,0,0,1-.5-.87V5A1,1,0,0,0,12,4Z"/><circle class="cls-3" cx="12" cy="17" r="2"/></svg>