<svg id="Icons" xmlns="http://www.w3.org/2000/svg" viewBox="0 0 24 24"><defs><style>.cls-1{fill:#fe9517;}.cls-2{fill:#486675;}</style></defs><title>Thunder</title><path class="cls-1" d="M18.89,9.55A1,1,0,0,0,18,9H13V3a1,1,0,0,0-1.82-.57l-7,10a1,1,0,0,0-.07,1A1,1,0,0,0,5,14H9v7a1,1,0,0,0,.69.95A1.12,1.12,0,0,0,10,22a1,1,0,0,0,.81-.41l8-11A1,1,0,0,0,18.89,9.55Z"/><path class="cls-2" d="M10,22A1.12,1.12,0,0,1,9.69,22,1,1,0,0,1,9,21V14H5a1,1,0,0,1-.89-.54,1,1,0,0,1,.07-1l7-10A1,1,0,0,1,13,3V9h5a1,1,0,0,1,.89.55,1,1,0,0,1-.08,1l-8,11A1,1,0,0,1,10,22ZM6.92,12H10a1,1,0,0,1,1,1v4.92L16,11H12a1,1,0,0,1-1-1V6.17Z"/></svg>