<svg id="Icons" xmlns="http://www.w3.org/2000/svg" viewBox="0 0 24 24"><defs><style>.cls-1{fill:#f8d800;}.cls-2{fill:#bbdefb;}.cls-3{fill:#fe9517;}.cls-4{fill:#486675;}</style></defs><title>Thunder cloud</title><path class="cls-1" d="M17,3a5,5,0,0,0-4.74,3.41,1,1,0,0,0,.25,1,4.45,4.45,0,0,1,.81,1,1,1,0,0,0,.87.5H16.5a3.44,3.44,0,0,1,3,1.69,1,1,0,0,0,.84.49h0a1,1,0,0,0,.84-.45A5,5,0,0,0,17,3Z"/><path class="cls-2" d="M21.21,9.67A5.49,5.49,0,0,0,16.5,7H14.74a6.61,6.61,0,0,0-.83-1A7,7,0,1,0,9,18h7.5A5.51,5.51,0,0,0,22,12.5,5.36,5.36,0,0,0,21.21,9.67Z"/><path class="cls-3" d="M13,21h-.16A1,1,0,0,1,12,20V19H11a1,1,0,0,1-.79-.38,1,1,0,0,1-.18-.86l1-4A1,1,0,0,1,12,13h1a1,1,0,0,1,.81.42,1,1,0,0,1,.14.9L13.39,16H14a1,1,0,0,1,.81.42,1,1,0,0,1,.14.9l-1,3A1,1,0,0,1,13,21Z"/><path class="cls-4" d="M22,8a5,5,0,0,0-9.11-2.82A6.93,6.93,0,0,0,9,4,7,7,0,0,0,5.5,17.06a.93.93,0,0,0,.5.14,1,1,0,0,0,.5-1.86A5,5,0,0,1,9,6a5,5,0,0,1,3.51,1.44h0a4.45,4.45,0,0,1,.81,1,1,1,0,0,0,.87.5H16.5a3.44,3.44,0,0,1,3,1.69h0A3.33,3.33,0,0,1,20,12.5a3.53,3.53,0,0,1-1.93,3.13l-.31.14a1,1,0,0,0,.33,1.94,1,1,0,0,0,.33-.06,5.15,5.15,0,0,0,.54-.23,5.45,5.45,0,0,0,3-4.92,5.35,5.35,0,0,0-.52-2.31A4.9,4.9,0,0,0,22,8ZM16.5,7H14.74c-.11-.16-.23-.32-.35-.47A3,3,0,0,1,20,8a2.09,2.09,0,0,1,0,.25A5.54,5.54,0,0,0,16.5,7Z"/></svg>