<svg id="Icons" xmlns="http://www.w3.org/2000/svg" viewBox="0 0 24 24"><defs><style>.cls-1{fill:#bbdefb;}.cls-2{fill:#8ac8fb;}.cls-3{fill:#309ffb;}.cls-4{fill:#486675;}</style></defs><title>Tsunami</title><path class="cls-1" d="M18.63,20.22c-4.21-3.36-2-11-1.69-11.9a1,1,0,0,0-1.39-1.2c-3.21,1.57-6.78,5.28-5.54,14A1,1,0,0,0,11,22h7a1,1,0,0,0,.63-1.78Z"/><path class="cls-2" d="M20.24,6c-4.8-1.2-8.66-.63-11.47,1.7C3.56,12,4,20.69,4,21.06A1,1,0,0,0,5,22h6a1,1,0,0,0,.75-.34,1,1,0,0,0,.24-.8c-.85-6,.68-10.11,4.44-11.94A9.25,9.25,0,0,1,20,8a1,1,0,0,0,.24-2Z"/><path class="cls-3" d="M21,22H3a1,1,0,0,1,0-2H21a1,1,0,0,1,0,2Z"/><path class="cls-4" d="M21,20H18.4c-3.51-3.14-2-9.54-1.58-11.25A9.12,9.12,0,0,1,20,8a1,1,0,0,0,.24-2c-4.8-1.2-8.66-.63-11.47,1.7C4.57,11.2,4,17.5,4,20H3a1,1,0,0,0,0,2H21a1,1,0,0,0,0-2Zm-5.25,0H11.9c-.44-4,.24-7.09,2-9.17a5.9,5.9,0,0,1,.49-.51C14,12.94,13.73,17,15.75,20ZM10,9.27a8.3,8.3,0,0,1,4.9-1.82A9.6,9.6,0,0,0,12.43,9.5c-2.14,2.48-3,6-2.54,10.5H6C6,17.78,6.51,12.18,10,9.27Z"/></svg>