<svg id="Icons" xmlns="http://www.w3.org/2000/svg" viewBox="0 0 24 24"><defs><style>.cls-1{fill:#73a2ba;}.cls-2{fill:#5d8396;}.cls-3{fill:#486675;}</style></defs><title>Wave</title><path class="cls-1" d="M16.5,8a4,4,0,0,1-2.91-1.24A2.12,2.12,0,0,0,12,6a2.09,2.09,0,0,0-1.59.74A4.09,4.09,0,0,1,7.5,8,4,4,0,0,1,4.59,6.75,2.11,2.11,0,0,0,3,6,1,1,0,0,1,3,4,4.09,4.09,0,0,1,5.91,5.25a2.07,2.07,0,0,0,3.17,0,4,4,0,0,1,5.83,0,2.08,2.08,0,0,0,3.18,0A4.07,4.07,0,0,1,21,4a1,1,0,0,1,0,2,2.11,2.11,0,0,0-1.59.74A4.09,4.09,0,0,1,16.5,8Z"/><path class="cls-2" d="M16.5,14a4,4,0,0,1-2.91-1.24A2.12,2.12,0,0,0,12,12a2.09,2.09,0,0,0-1.59.74,4,4,0,0,1-5.82,0A2.11,2.11,0,0,0,3,12a1,1,0,0,1,0-2,4.09,4.09,0,0,1,2.91,1.24,2.07,2.07,0,0,0,3.17,0,4,4,0,0,1,5.83,0,2.08,2.08,0,0,0,3.18,0A4.07,4.07,0,0,1,21,10a1,1,0,0,1,0,2,2.11,2.11,0,0,0-1.59.74A4.09,4.09,0,0,1,16.5,14Z"/><path class="cls-3" d="M16.5,20a4,4,0,0,1-2.91-1.24A2.12,2.12,0,0,0,12,18a2.09,2.09,0,0,0-1.59.74,4,4,0,0,1-5.82,0A2.11,2.11,0,0,0,3,18a1,1,0,0,1,0-2,4.09,4.09,0,0,1,2.91,1.24,2.07,2.07,0,0,0,3.17,0,4,4,0,0,1,5.83,0,2.08,2.08,0,0,0,3.18,0A4.07,4.07,0,0,1,21,16a1,1,0,0,1,0,2,2.11,2.11,0,0,0-1.59.74A4.09,4.09,0,0,1,16.5,20Z"/></svg>