<svg id="Icons" xmlns="http://www.w3.org/2000/svg" viewBox="0 0 24 24"><defs><style>.cls-1{fill:#f8d800;}.cls-2{fill:#bbdefb;}.cls-3{fill:#53affb;}.cls-4{fill:#486675;}</style></defs><title>Windy sun</title><path class="cls-1" d="M17,3a5,5,0,0,0-4.74,3.41,1,1,0,0,0,.25,1,4.45,4.45,0,0,1,.81,1,1,1,0,0,0,.87.5H16.5a3.44,3.44,0,0,1,3,1.69,1,1,0,0,0,.84.49h0a1,1,0,0,0,.84-.45A5,5,0,0,0,17,3Z"/><path class="cls-2" d="M21.21,9.67A5.49,5.49,0,0,0,16.5,7H14.74a6.61,6.61,0,0,0-.83-1A7,7,0,1,0,9,18h7.5A5.51,5.51,0,0,0,22,12.5,5.36,5.36,0,0,0,21.21,9.67Z"/><path class="cls-3" d="M9,15H4a1,1,0,0,1,0-2H9a1,1,0,0,0,0-2A1,1,0,0,1,9,9a3,3,0,0,1,0,6Z"/><path class="cls-3" d="M9,21H4a1,1,0,0,1,0-2H9a1,1,0,0,1,0,2Z"/><path class="cls-4" d="M22,8a5,5,0,0,0-9.12-2.81A7,7,0,0,0,2,11a1,1,0,0,0,2,0,5,5,0,0,1,8.52-3.55l.15.18a4.29,4.29,0,0,1,.65.87,1,1,0,0,0,.87.5H16.5a3.39,3.39,0,0,1,.64.07l.11,0a3.21,3.21,0,0,1,1.2.51h0A3.52,3.52,0,0,1,19,10h0a3.65,3.65,0,0,1,.35.43l.12.17A3.49,3.49,0,0,1,16.5,16H3a1,1,0,0,0,0,2H16.5A5.51,5.51,0,0,0,22,12.5a5.4,5.4,0,0,0-.52-2.31A4.9,4.9,0,0,0,22,8ZM14.74,7c-.11-.16-.23-.32-.35-.47A3,3,0,0,1,20,8a2.09,2.09,0,0,1,0,.25h0a4.7,4.7,0,0,0-.73-.5l-.05,0a5.63,5.63,0,0,0-.79-.36l-.09,0a5.64,5.64,0,0,0-.83-.23h-.11A5.05,5.05,0,0,0,16.5,7Z"/></svg>