<svg id="Icons" xmlns="http://www.w3.org/2000/svg" viewBox="0 0 24 24"><defs><style>.cls-1{fill:#bbdefb;}.cls-2{fill:#486675;}.cls-3{fill:#8ac8fb;}</style></defs><title>Windy Temperature</title><path class="cls-1" d="M18,10H13a1,1,0,0,1,0-2h5a1,1,0,0,0,0-2,1,1,0,0,1,0-2,3,3,0,0,1,0,6Z"/><path class="cls-1" d="M19,13H13a1,1,0,0,1,0-2h6a1,1,0,0,1,0,2Z"/><path class="cls-1" d="M11,13V5A3,3,0,0,0,5,5v8a5,5,0,1,0,6,0Z"/><path class="cls-2" d="M8,22a5,5,0,0,1-3-9V5a3,3,0,0,1,6,0v8a5,5,0,0,1-3,9ZM8,4A1,1,0,0,0,7,5v8.54a1,1,0,0,1-.5.87A3,3,0,0,0,5,17a3,3,0,0,0,6,0,3,3,0,0,0-1.5-2.59,1,1,0,0,1-.5-.87V5A1,1,0,0,0,8,4Z"/><circle class="cls-3" cx="8" cy="17" r="2"/></svg>