<svg id="Icons" xmlns="http://www.w3.org/2000/svg" viewBox="0 0 24 24"><defs><style>.cls-1{fill:#486675;}.cls-2{fill:#bbdefb;}.cls-3{fill:#fe6017;}</style></defs><title>Wind 2</title><path class="cls-1" d="M8,9a1.07,1.07,0,0,1-.25,0l-4-1A1,1,0,0,1,4.25,6l4,1A1,1,0,0,1,8,9Z"/><path class="cls-1" d="M4,13a1,1,0,0,1-.25-2l4-1A1,1,0,0,1,9,10.69a1,1,0,0,1-.72,1.22l-4,1A1.07,1.07,0,0,1,4,13Z"/><path class="cls-1" d="M6,4A2,2,0,0,0,2,4,2,2,0,0,0,3,5.72V21a1,1,0,0,0,2,0V5.72A2,2,0,0,0,6,4Z"/><path class="cls-2" d="M22,8v3a1,1,0,0,1-.85,1L17,12.63l-6,.92L8.15,14H8a1,1,0,0,1-.65-.24A1,1,0,0,1,7,13V6A1,1,0,0,1,8.15,5L11,5.45l6,.92L21.15,7A1,1,0,0,1,22,8Z"/><polygon class="cls-3" points="17 6.37 17 12.63 11 13.55 11 5.45 17 6.37"/><path class="cls-1" d="M21.15,7l-13-2A1,1,0,0,0,7,6v7a1,1,0,0,0,.35.76A1,1,0,0,0,8,14h.15l13-2A1,1,0,0,0,22,11V8A1,1,0,0,0,21.15,7ZM15,8.09v2.82l-2,.31V7.78ZM9,7.17l2,.3v4.06l-2,.3Zm11,3-3,.46V8.4l3,.46Z"/></svg>